HIERARCHY
ROOT Hips
{
	OFFSET 0.000000 0.000000 0.000000
	CHANNELS 6 Xposition Yposition Zposition Zrotation Yrotation Xrotation 
	JOINT Spine1
	{
		OFFSET -0.013727 5.003762 -0.053727
		CHANNELS 3 Zrotation Yrotation Xrotation
		JOINT Spine2
		{
			OFFSET -0.000000 7.125302 -0.029825
			CHANNELS 3 Zrotation Yrotation Xrotation
			JOINT Chest
			{
				OFFSET -0.000001 7.550065 -0.815971
				CHANNELS 3 Zrotation Yrotation Xrotation
				JOINT Neck1
				{
					OFFSET -0.181676 26.311296 -0.553348
					CHANNELS 3 Zrotation Yrotation Xrotation
					JOINT Neck2
					{
						OFFSET -0.000003 7.709397 2.302586
						CHANNELS 3 Zrotation Yrotation Xrotation
						JOINT Head
						{
							OFFSET -0.000004 6.128914 1.953708
							CHANNELS 3 Zrotation Yrotation Xrotation
							JOINT HeadEnd
							{
								OFFSET 0.003598 16.065403 -1.835380
								CHANNELS 3 Zrotation Yrotation Xrotation
								End Site
								{
									OFFSET 0.000000 0.000000 0.000000
								}
							}
							JOINT Jaw
							{
								OFFSET 0.002637 0.475592 3.094941
								CHANNELS 3 Zrotation Yrotation Xrotation
								End Site
								{
									OFFSET 0.000000 0.000000 0.000000
								}
							}
							JOINT LeftEye
							{
								OFFSET 3.206381 5.380207 7.586883
								CHANNELS 3 Zrotation Yrotation Xrotation
								End Site
								{
									OFFSET 0.000000 0.000000 0.000000
								}
							}
							JOINT RightEye
							{
								OFFSET -3.222440 5.361868 7.558233
								CHANNELS 3 Zrotation Yrotation Xrotation
								End Site
								{
									OFFSET 0.000000 0.000000 0.000000
								}
							}
						}
					}
				}
				JOINT LeftShoulder
				{
					OFFSET 1.621652 23.237164 5.113413
					CHANNELS 3 Zrotation Yrotation Xrotation
					JOINT LeftArm
					{
						OFFSET 14.919845 0.000002 -5.502327
						CHANNELS 3 Zrotation Yrotation Xrotation
						JOINT LeftForeArm
						{
							OFFSET 28.739309 0.000003 -0.002588
							CHANNELS 3 Zrotation Yrotation Xrotation
							JOINT LeftHand
							{
								OFFSET 27.093979 -0.000003 0.002609
								CHANNELS 3 Zrotation Yrotation Xrotation
								JOINT LeftHandThumb1
								{
									OFFSET 2.276481 -1.392045 3.191414
									CHANNELS 3 Zrotation Yrotation Xrotation
									JOINT LeftHandThumb2
									{
										OFFSET 4.012841 -1.828127 1.641655
										CHANNELS 3 Zrotation Yrotation Xrotation
										JOINT LeftHandThumb3
										{
											OFFSET 2.798517 0.000002 -0.000003
											CHANNELS 3 Zrotation Yrotation Xrotation
											JOINT LeftHandThumbEnd
											{
												OFFSET 3.180792 -0.000002 0.000002
												CHANNELS 3 Zrotation Yrotation Xrotation
												End Site
												{
													OFFSET 0.000000 0.000000 0.000000
												}
											}
										}
									}
								}
								JOINT LeftHandIndex1
								{
									OFFSET 3.247554 -0.531998 2.296170
									CHANNELS 3 Zrotation Yrotation Xrotation
									JOINT LeftHandIndex2
									{
										OFFSET 6.364579 0.012062 0.178600
										CHANNELS 3 Zrotation Yrotation Xrotation
										JOINT LeftHandIndex3
										{
											OFFSET 3.662366 0.000001 0.000000
											CHANNELS 3 Zrotation Yrotation Xrotation
											JOINT LeftHandIndex4
											{
												OFFSET 2.329241 0.000001 0.000002
												CHANNELS 3 Zrotation Yrotation Xrotation
												JOINT LeftHandIndexEnd
												{
													OFFSET 2.759619 -0.180538 -0.113023
													CHANNELS 3 Zrotation Yrotation Xrotation
													End Site
													{
														OFFSET 0.000000 0.000000 0.000000
													}
												}
											}
										}
									}
								}
								JOINT LeftHandMiddle1
								{
									OFFSET 3.163498 0.240982 1.000332
									CHANNELS 3 Zrotation Yrotation Xrotation
									JOINT LeftHandMiddle2
									{
										OFFSET 6.190779 -0.259276 -1.002548
										CHANNELS 3 Zrotation Yrotation Xrotation
										JOINT LeftHandMiddle3
										{
											OFFSET 4.356523 -0.000006 0.000001
											CHANNELS 3 Zrotation Yrotation Xrotation
											JOINT LeftHandMiddle4
											{
												OFFSET 2.996875 -0.000008 0.000000
												CHANNELS 3 Zrotation Yrotation Xrotation
												JOINT LeftHandMiddleEnd
												{
													OFFSET 2.304294 -0.294572 -0.031740
													CHANNELS 3 Zrotation Yrotation Xrotation
													End Site
													{
														OFFSET 0.000000 0.000000 0.000000
													}
												}
											}
										}
									}
								}
								JOINT LeftHandRing1
								{
									OFFSET 2.882643 -0.053650 -0.322543
									CHANNELS 3 Zrotation Yrotation Xrotation
									JOINT LeftHandRing2
									{
										OFFSET 5.854543 -0.486203 -1.373841
										CHANNELS 3 Zrotation Yrotation Xrotation
										JOINT LeftHandRing3
										{
											OFFSET 4.350579 -0.000000 0.000003
											CHANNELS 3 Zrotation Yrotation Xrotation
											JOINT LeftHandRing4
											{
												OFFSET 2.651324 0.000007 0.000004
												CHANNELS 3 Zrotation Yrotation Xrotation
												JOINT LeftHandRingEnd
												{
													OFFSET 1.936111 0.077685 -0.000069
													CHANNELS 3 Zrotation Yrotation Xrotation
													End Site
													{
														OFFSET 0.000000 0.000000 0.000000
													}
												}
											}
										}
									}
								}
								JOINT LeftHandPinky1
								{
									OFFSET 2.865499 -0.310003 -1.600378
									CHANNELS 3 Zrotation Yrotation Xrotation
									JOINT LeftHandPinky2
									{
										OFFSET 5.087853 -1.331141 -1.771231
										CHANNELS 3 Zrotation Yrotation Xrotation
										JOINT LeftHandPinky3
										{
											OFFSET 3.070975 0.000003 0.000001
											CHANNELS 3 Zrotation Yrotation Xrotation
											JOINT LeftHandPinky4
											{
												OFFSET 1.549667 -0.000000 0.000001
												CHANNELS 3 Zrotation Yrotation Xrotation
												JOINT LeftHandPinkyEnd
												{
													OFFSET 1.944894 -0.157803 0.057219
													CHANNELS 3 Zrotation Yrotation Xrotation
													End Site
													{
														OFFSET 0.000000 0.000000 0.000000
													}
												}
											}
										}
									}
								}
							}
						}
					}
				}
				JOINT RightShoulder
				{
					OFFSET -1.380118 23.180307 5.214158
					CHANNELS 3 Zrotation Yrotation Xrotation
					JOINT RightArm
					{
						OFFSET -15.037197 0.000012 -5.545604
						CHANNELS 3 Zrotation Yrotation Xrotation
						JOINT RightForeArm
						{
							OFFSET -28.736639 0.000002 -0.002597
							CHANNELS 3 Zrotation Yrotation Xrotation
							JOINT RightHand
							{
								OFFSET -27.133617 0.000000 0.002612
								CHANNELS 3 Zrotation Yrotation Xrotation
								JOINT RightHandThumb1
								{
									OFFSET -2.274036 -1.383990 3.163128
									CHANNELS 3 Zrotation Yrotation Xrotation
									JOINT RightHandThumb2
									{
										OFFSET -4.011429 -1.827467 1.640914
										CHANNELS 3 Zrotation Yrotation Xrotation
										JOINT RightHandThumb3
										{
											OFFSET -2.794936 -0.000003 -0.000003
											CHANNELS 3 Zrotation Yrotation Xrotation
											JOINT RightHandThumbEnd
											{
												OFFSET -3.183854 0.000002 -0.000001
												CHANNELS 3 Zrotation Yrotation Xrotation
												End Site
												{
													OFFSET 0.000000 0.000000 0.000000
												}
											}
										}
									}
								}
								JOINT RightHandIndex1
								{
									OFFSET -3.253268 -0.520060 2.282866
									CHANNELS 3 Zrotation Yrotation Xrotation
									JOINT RightHandIndex2
									{
										OFFSET -6.341918 0.012472 0.178265
										CHANNELS 3 Zrotation Yrotation Xrotation
										JOINT RightHandIndex3
										{
											OFFSET -3.654874 -0.000009 -0.000001
											CHANNELS 3 Zrotation Yrotation Xrotation
											JOINT RightHandIndex4
											{
												OFFSET -2.327587 0.000001 -0.000000
												CHANNELS 3 Zrotation Yrotation Xrotation
												JOINT RightHandIndexEnd
												{
													OFFSET -2.761789 -0.180657 -0.113079
													CHANNELS 3 Zrotation Yrotation Xrotation
													End Site
													{
														OFFSET 0.000000 0.000000 0.000000
													}
												}
											}
										}
									}
								}
								JOINT RightHandMiddle1
								{
									OFFSET -3.168106 0.246593 1.001030
									CHANNELS 3 Zrotation Yrotation Xrotation
									JOINT RightHandMiddle2
									{
										OFFSET -6.180830 -0.258835 -1.000896
										CHANNELS 3 Zrotation Yrotation Xrotation
										JOINT RightHandMiddle3
										{
											OFFSET -4.348905 -0.000001 -0.000000
											CHANNELS 3 Zrotation Yrotation Xrotation
											JOINT RightHandMiddle4
											{
												OFFSET -3.000243 -0.000003 -0.000003
												CHANNELS 3 Zrotation Yrotation Xrotation
												JOINT RightHandMiddleEnd
												{
													OFFSET -2.302518 -0.294371 -0.031706
													CHANNELS 3 Zrotation Yrotation Xrotation
													End Site
													{
														OFFSET 0.000000 0.000000 0.000000
													}
												}
											}
										}
									}
								}
								JOINT RightHandRing1
								{
									OFFSET -2.885693 -0.067952 -0.308858
									CHANNELS 3 Zrotation Yrotation Xrotation
									JOINT RightHandRing2
									{
										OFFSET -5.854196 -0.486131 -1.373731
										CHANNELS 3 Zrotation Yrotation Xrotation
										JOINT RightHandRing3
										{
											OFFSET -4.338814 -0.000005 -0.000000
											CHANNELS 3 Zrotation Yrotation Xrotation
											JOINT RightHandRing4
											{
												OFFSET -2.654906 -0.000004 0.000003
												CHANNELS 3 Zrotation Yrotation Xrotation
												JOINT RightHandRingEnd
												{
													OFFSET -1.933570 0.077524 -0.000052
													CHANNELS 3 Zrotation Yrotation Xrotation
													End Site
													{
														OFFSET 0.000000 0.000000 0.000000
													}
												}
											}
										}
									}
								}
								JOINT RightHandPinky1
								{
									OFFSET -2.866430 -0.342798 -1.584145
									CHANNELS 3 Zrotation Yrotation Xrotation
									JOINT RightHandPinky2
									{
										OFFSET -5.091371 -1.332054 -1.772385
										CHANNELS 3 Zrotation Yrotation Xrotation
										JOINT RightHandPinky3
										{
											OFFSET -3.062666 -0.000008 -0.000000
											CHANNELS 3 Zrotation Yrotation Xrotation
											JOINT RightHandPinky4
											{
												OFFSET -1.546526 0.000005 -0.000003
												CHANNELS 3 Zrotation Yrotation Xrotation
												JOINT RightHandPinkyEnd
												{
													OFFSET -1.945122 -0.157721 0.057211
													CHANNELS 3 Zrotation Yrotation Xrotation
													End Site
													{
														OFFSET 0.000000 0.000000 0.000000
													}
												}
											}
										}
									}
								}
							}
						}
					}
				}
			}
		}
	}
	JOINT LeftLeg
	{
		OFFSET 10.043214 -8.434526 2.595655
		CHANNELS 3 Zrotation Yrotation Xrotation
		JOINT LeftShin
		{
			OFFSET -0.000002 -43.221752 -0.802912
			CHANNELS 3 Zrotation Yrotation Xrotation
			JOINT LeftFoot
			{
				OFFSET 0.000001 -42.155094 -3.481522
				CHANNELS 3 Zrotation Yrotation Xrotation
				JOINT LeftToeBase
				{
					OFFSET 0.000000 -5.059475 13.231529
					CHANNELS 3 Zrotation Yrotation Xrotation
					JOINT LeftToeEnd
					{
						OFFSET -0.009607 -1.647615 6.513017
						CHANNELS 3 Zrotation Yrotation Xrotation
						End Site
						{
							OFFSET 0.000000 0.000000 0.000000
						}
					}
				}
			}
		}
	}
	JOINT RightLeg
	{
		OFFSET -10.047277 -8.295259 2.620317
		CHANNELS 3 Zrotation Yrotation Xrotation
		JOINT RightShin
		{
			OFFSET 0.000000 -43.362209 -0.805555
			CHANNELS 3 Zrotation Yrotation Xrotation
			JOINT RightFoot
			{
				OFFSET 0.000003 -42.117393 -3.478398
				CHANNELS 3 Zrotation Yrotation Xrotation
				JOINT RightToeBase
				{
					OFFSET -0.000001 -5.079608 13.284196
					CHANNELS 3 Zrotation Yrotation Xrotation
					JOINT RightToeEnd
					{
						OFFSET 0.009532 -1.634383 6.460591
						CHANNELS 3 Zrotation Yrotation Xrotation
						End Site
						{
							OFFSET 0.000000 0.000000 0.000000
						}
					}
				}
			}
		}
	}
}
MOTION
Frames: 5
Frame Time: 0.033333
62.680824 91.326752 -1.150513 1.911335 4.836071 -0.914924 -1.496590 -0.274049 7.546868 -0.686304 -0.734623 -1.790008 -2.359878 -3.263600 10.528845 7.121171 -0.721688 7.539415 -3.015328 -8.732806 -3.199193 2.564728 -11.767330 -15.370620 0.000077 -0.000023 0.000006 -0.011317 0.044048 0.002006 0.697114 -3.706178 -10.637196 -0.726943 3.804440 -10.666410 0.851712 -11.630766 5.667233 -41.904224 -59.150970 -10.429605 -179.898819 -57.526329 179.924911 3.685422 0.912481 -9.748880 -5.882102 9.861281 0.702590 -10.936860 -0.360576 7.156198 -0.000000 8.774815 -0.000002 -16.153608 18.685467 6.112709 -1.844032 2.498502 -2.507275 -10.163589 4.678939 4.621103 -20.975996 -0.000006 0.000003 -21.226254 2.451691 -3.593994 0.000000 -0.000006 -0.000002 -1.362681 2.240797 -0.746322 -21.334894 0.584908 3.008320 -13.821197 -0.000003 0.000003 -23.887131 -0.249080 -0.839481 -60.875259 2.407513 -1.545640 -0.294023 1.679686 0.833255 -14.218194 0.093213 1.300579 -34.212006 -0.287566 0.967169 -20.033180 0.964534 1.212842 -0.000001 0.000001 -0.000000 -3.440385 0.788232 0.501655 -15.928169 -3.167309 2.999705 -6.338819 -0.000001 0.000001 -18.123415 3.648176 -4.905663 -0.000004 0.000000 -0.000003 -0.286948 13.125592 3.433935 27.072004 36.636391 -39.199810 -179.684586 59.848846 -179.646912 -5.177414 7.089120 -13.797391 2.243541 -5.255033 -3.180155 14.282877 -0.826594 6.952495 -0.000002 -12.690586 0.000001 16.237301 -17.403492 2.659460 1.665663 -1.955919 -2.878296 4.727792 -4.170582 4.993918 11.020514 0.000003 -0.000000 12.109033 -3.735708 -2.866779 -0.000001 0.000001 0.000001 1.291984 -1.928547 -1.498088 14.800117 0.567468 3.865603 14.242556 -1.341734 -6.660648 19.631939 0.143925 -0.648244 49.885704 -0.790814 -6.228212 0.353029 -1.511149 -0.031940 20.222767 3.684305 2.316627 18.787245 0.000004 -0.000001 10.751610 -0.479868 1.397903 0.000000 0.000000 0.000000 3.273804 0.305947 -0.580110 21.486790 11.830360 2.266130 8.162914 0.000002 -0.000001 18.399052 -3.798978 -4.940567 0.000003 -0.000000 -0.000002 11.205517 19.734997 -18.086922 -0.197342 -0.373512 45.233158 -15.362732 -6.832647 -20.379406 1.622509 -1.895422 -0.485180 -0.000000 0.000000 0.000002 -13.474141 -32.745731 -30.483416 0.289947 0.249151 41.211651 9.735303 -0.091285 -3.513753 -1.448157 0.802730 0.361436 0.000000 0.000000 -0.000001 
62.898224 91.438438 -1.111159 1.974672 4.903398 -0.866422 -1.407206 -0.293781 7.490900 -0.631288 -0.696808 -1.825270 -2.246789 -3.282635 10.546844 6.913513 -0.626426 7.613277 -3.034686 -8.741396 -3.187126 2.558365 -11.708123 -15.572460 0.000077 -0.000024 0.000006 -0.008851 0.049123 0.007253 0.693103 -3.708006 -10.632878 -0.720491 3.802533 -10.664270 0.885519 -11.511965 5.782184 -42.433823 -58.924789 -9.745800 179.704117 -57.557613 -179.752106 4.064990 0.881711 -9.938795 -5.882100 9.861278 0.702589 -10.936857 -0.360576 7.156198 0.000000 8.774814 -0.000001 -16.142609 18.651894 6.106832 -1.844032 2.498503 -2.507277 -10.163588 4.678938 4.621103 -20.975996 -0.000004 0.000003 -21.226250 2.451691 -3.593990 0.000000 -0.000006 -0.000002 -1.362678 2.240796 -0.746321 -21.334894 0.584908 3.008321 -13.821197 -0.000003 0.000003 -23.887131 -0.249079 -0.839481 -60.916267 2.409284 -1.524745 -0.294026 1.679685 0.833256 -14.218194 0.093215 1.300578 -34.212002 -0.287566 0.967172 -20.033176 0.964534 1.212842 -0.000000 0.000001 -0.000000 -3.440385 0.788232 0.501657 -15.928164 -3.167306 2.999704 -6.338817 -0.000001 0.000001 -18.123413 3.648175 -4.905661 -0.000004 0.000000 -0.000003 -0.390747 13.137647 3.453984 27.004833 36.685440 -39.608921 -179.597977 59.994820 -179.600540 -5.165787 7.089631 -13.650802 2.243540 -5.255032 -3.180155 14.282875 -0.826595 6.952495 -0.000002 -12.690587 0.000001 16.156502 -17.369148 2.737414 1.665665 -1.955919 -2.878296 4.727795 -4.170583 4.993919 11.020514 0.000003 -0.000001 12.109033 -3.735710 -2.866778 0.000000 0.000000 0.000000 1.291983 -1.928548 -1.498087 14.800111 0.567468 3.865602 14.242551 -1.341734 -6.660650 19.631937 0.143927 -0.648244 49.749287 -0.755997 -6.124574 0.353032 -1.511149 -0.031940 20.222767 3.684306 2.316627 18.787247 0.000003 -0.000001 10.751610 -0.479868 1.397904 0.000000 0.000000 0.000000 3.273805 0.305947 -0.580111 21.486794 11.830362 2.266129 8.162916 0.000002 -0.000001 18.399054 -3.798979 -4.940568 0.000003 0.000000 -0.000001 10.902659 19.270958 -17.973759 -0.188021 -0.345998 44.904873 -15.052958 -6.626523 -20.515169 1.623730 -1.915026 -0.516363 -0.000000 0.000000 0.000002 -13.668634 -33.027279 -30.205622 0.286173 0.247658 40.692669 10.007796 0.076025 -3.188411 -1.443038 0.788634 0.369159 0.000000 0.000000 -0.000001 
63.073517 91.406784 -1.051778 2.085415 4.913165 -0.876617 -1.340048 -0.305786 7.495690 -0.587578 -0.690035 -1.850571 -2.168871 -3.284789 10.600707 6.722311 -0.541895 7.673149 -3.024800 -8.721934 -3.179452 2.556939 -11.671954 -15.858562 0.000077 -0.000022 0.000006 -0.007547 0.033221 0.017810 0.690581 -3.719785 -10.618663 -0.717266 3.800765 -10.651692 0.971235 -11.451989 5.883214 -42.705006 -58.864498 -9.392358 179.429398 -57.652908 -179.473877 4.401827 0.914533 -10.259214 -5.882100 9.861277 0.702590 -10.936860 -0.360575 7.156196 0.000001 8.774814 -0.000001 -16.123741 18.647644 6.117858 -1.844031 2.498502 -2.507276 -10.163589 4.678939 4.621104 -20.975994 -0.000005 0.000003 -21.226254 2.451691 -3.593991 0.000000 -0.000006 -0.000001 -1.362680 2.240796 -0.746323 -21.334892 0.584909 3.008321 -13.821195 -0.000003 0.000002 -23.887129 -0.249077 -0.839481 -60.959667 2.408245 -1.506995 -0.294025 1.679687 0.833254 -14.218194 0.093213 1.300579 -34.212006 -0.287563 0.967169 -20.033178 0.964536 1.212842 0.000000 0.000001 0.000000 -3.440388 0.788234 0.501656 -15.928165 -3.167308 2.999703 -6.338817 -0.000000 0.000001 -18.123413 3.648175 -4.905662 -0.000004 -0.000000 -0.000003 -0.569331 13.172165 3.451382 26.798101 36.749794 -40.189697 -179.515884 60.198048 -179.512192 -5.187814 7.063660 -13.661420 2.243541 -5.255032 -3.180156 14.282877 -0.826593 6.952496 -0.000003 -12.690590 0.000002 16.046953 -17.287853 2.789524 1.665665 -1.955920 -2.878297 4.727796 -4.170583 4.993918 11.020512 0.000002 -0.000001 12.109031 -3.735708 -2.866778 0.000000 0.000001 0.000000 1.291985 -1.928548 -1.498088 14.800114 0.567468 3.865603 14.242554 -1.341734 -6.660648 19.631939 0.143926 -0.648245 49.595116 -0.733993 -6.069407 0.353030 -1.511149 -0.031940 20.222771 3.684305 2.316627 18.787247 0.000004 -0.000001 10.751612 -0.479867 1.397903 0.000000 0.000000 0.000000 3.273804 0.305947 -0.580110 21.486790 11.830362 2.266129 8.162917 0.000001 -0.000000 18.399054 -3.798978 -4.940567 0.000003 -0.000000 -0.000000 10.653818 18.990828 -17.937933 -0.167792 -0.314243 44.975063 -14.832035 -6.624486 -20.784603 1.622562 -1.934895 -0.491618 -0.000000 0.000000 0.000002 -13.928349 -33.375458 -30.147886 0.283872 0.223040 40.715805 10.253850 0.432235 -3.101514 -1.439908 0.789335 0.397112 0.000000 0.000000 -0.000001 
63.252491 91.282234 -1.024171 2.201534 4.862315 -0.915547 -1.291603 -0.345957 7.520538 -0.566313 -0.633740 -1.862159 -2.119833 -3.329963 10.681324 6.537235 -0.452071 7.720401 -2.990406 -8.681726 -3.195011 2.575766 -11.630406 -16.164179 0.000077 -0.000022 0.000006 -0.007773 0.038370 0.025741 0.686802 -3.714815 -10.615610 -0.708343 3.797564 -10.643600 1.007539 -11.381705 6.025495 -42.824184 -58.938786 -9.207013 179.268280 -57.770508 -179.192673 4.572758 0.977661 -10.657310 -5.882101 9.861279 0.702590 -10.936857 -0.360578 7.156198 0.000000 8.774817 -0.000002 -16.095566 18.704893 6.140103 -1.844031 2.498501 -2.507274 -10.163588 4.678940 4.621102 -20.975996 -0.000005 0.000003 -21.226254 2.451691 -3.593993 0.000000 -0.000006 -0.000001 -1.362680 2.240797 -0.746321 -21.334887 0.584908 3.008318 -13.821197 -0.000004 0.000004 -23.887131 -0.249079 -0.839481 -60.959709 2.404335 -1.512002 -0.294026 1.679687 0.833256 -14.218194 0.093213 1.300578 -34.211998 -0.287567 0.967169 -20.033178 0.964533 1.212842 -0.000000 0.000001 -0.000000 -3.440382 0.788232 0.501654 -15.928171 -3.167307 2.999701 -6.338819 -0.000001 -0.000001 -18.123415 3.648175 -4.905662 -0.000004 0.000000 -0.000002 -0.767509 13.215207 3.416979 26.555351 36.808849 -40.669388 -179.364716 60.405041 -179.333527 -5.219433 7.072253 -13.812703 2.243538 -5.255032 -3.180154 14.282878 -0.826595 6.952496 -0.000001 -12.690591 0.000002 15.939106 -17.235716 2.826271 1.665661 -1.955920 -2.878297 4.727794 -4.170584 4.993919 11.020511 0.000002 0.000001 12.109034 -3.735709 -2.866777 0.000001 -0.000000 0.000000 1.291986 -1.928547 -1.498088 14.800117 0.567466 3.865604 14.242554 -1.341734 -6.660646 19.631941 0.143924 -0.648243 49.499767 -0.732816 -6.044767 0.353028 -1.511150 -0.031941 20.222771 3.684305 2.316628 18.787247 0.000003 0.000000 10.751613 -0.479868 1.397904 -0.000001 -0.000000 -0.000000 3.273806 0.305947 -0.580110 21.486795 11.830360 2.266130 8.162919 0.000001 -0.000000 18.399055 -3.798980 -4.940566 0.000003 -0.000000 -0.000000 10.426844 18.796640 -17.971605 -0.169796 -0.286015 45.262383 -14.619092 -6.688446 -21.246386 1.614072 -1.929319 -0.459615 -0.000000 -0.000001 0.000002 -14.187043 -33.717712 -30.265387 0.291916 0.214824 41.028484 10.435876 0.856198 -3.108618 -1.437824 0.789412 0.417925 0.000000 0.000000 -0.000001 
63.377453 91.157310 -1.048950 2.314934 4.796496 -0.932528 -1.244865 -0.372947 7.553193 -0.553769 -0.611553 -1.875996 -2.107436 -3.384220 10.792917 6.390842 -0.367823 7.711815 -2.948801 -8.601684 -3.206560 2.611621 -11.616190 -16.435078 0.000077 -0.000022 0.000006 -0.009666 0.062689 0.025042 0.679960 -3.695819 -10.601909 -0.706511 3.819379 -10.628683 0.984921 -11.337715 6.195302 -42.741100 -59.162575 -9.287299 179.454636 -57.933231 -179.223679 4.644614 1.015852 -10.999904 -5.882102 9.861278 0.702589 -10.936862 -0.360572 7.156196 -0.000001 8.774814 -0.000000 -16.089138 18.736952 6.160151 -1.844031 2.498503 -2.507274 -10.163589 4.678940 4.621104 -20.975998 -0.000000 0.000002 -21.226255 2.451696 -3.593995 0.000000 -0.000006 -0.000002 -1.362680 2.240797 -0.746322 -21.334890 0.584910 3.008320 -13.821197 -0.000001 0.000003 -23.887135 -0.249076 -0.839483 -60.929096 2.383300 -1.523046 -0.294025 1.679686 0.833255 -14.218192 0.093216 1.300579 -34.212013 -0.287560 0.967168 -20.033184 0.964535 1.212838 -0.000000 0.000000 0.000001 -3.440386 0.788233 0.501655 -15.928169 -3.167305 2.999702 -6.338818 0.000000 0.000002 -18.123417 3.648177 -4.905662 -0.000003 0.000000 -0.000002 -0.942416 13.276719 3.388660 26.233942 36.880486 -41.141289 -179.228287 60.619373 -179.172562 -5.282388 7.107172 -13.897233 2.243541 -5.255033 -3.180154 14.282877 -0.826593 6.952496 -0.000002 -12.690590 -0.000002 15.840825 -17.248781 2.837920 1.665665 -1.955921 -2.878296 4.727794 -4.170583 4.993918 11.020514 0.000003 -0.000000 12.109032 -3.735710 -2.866780 0.000001 0.000001 0.000001 1.291984 -1.928547 -1.498087 14.800114 0.567468 3.865604 14.242551 -1.341736 -6.660648 19.631941 0.143924 -0.648242 49.484711 -0.777306 -6.052941 0.353029 -1.511149 -0.031940 20.222773 3.684307 2.316629 18.787247 0.000003 0.000000 10.751610 -0.479868 1.397903 -0.000001 0.000000 0.000000 3.273805 0.305946 -0.580110 21.486794 11.830363 2.266133 8.162916 0.000002 -0.000001 18.399055 -3.798979 -4.940569 0.000003 -0.000000 -0.000001 10.216809 18.660368 -18.092768 -0.166746 -0.272741 45.593975 -14.483286 -6.721528 -21.597265 1.613458 -1.917267 -0.400779 -0.000000 0.000001 0.000002 -14.367913 -34.020836 -30.475176 0.289176 0.187653 41.362129 10.582075 1.281367 -3.106459 -1.434067 0.776872 0.434664 -0.000000 -0.000000 -0.000001 
